<svg width="390" height="320" viewBox="0 0 390 320" fill="none" xmlns="http://www.w3.org/2000/svg">
<g filter="url(#filter0_d_2204_4)">
<g clip-path="url(#clip0_2204_4)">
<rect x="21" y="12" width="348" height="271.5" rx="24" fill="url(#paint0_linear_2204_4)"/>
<foreignObject x="77.7351" y="24" width="234.53" height="50.5"><div xmlns="http://www.w3.org/1999/xhtml" style="backdrop-filter:blur(6px);clip-path:url(#bgblur_1_2204_4_clip_path);height:100%;width:100%"></div></foreignObject><g data-figma-bg-blur-radius="12">
<rect x="89.7351" y="36" width="210.53" height="26.5" rx="13.25" fill="white" fill-opacity="0.2"/>
<rect x="90.2351" y="36.5" width="209.53" height="25.5" rx="12.75" stroke="white" stroke-opacity="0.3"/>
<rect x="104.735" y="45.25" width="8" height="8" rx="4" fill="#34D399"/>
<path d="M122.448 53.132C121.932 53.132 121.453 53.0371 121.008 52.8474C120.563 52.6576 120.182 52.3918 119.864 52.0499C119.546 51.708 119.311 51.3106 119.159 50.8578L120.404 50.3133C120.606 50.7881 120.893 51.158 121.266 51.4229C121.64 51.6878 122.061 51.8203 122.53 51.8203C122.794 51.8203 123.023 51.7785 123.216 51.6951C123.41 51.6117 123.56 51.4962 123.669 51.3486C123.777 51.201 123.831 51.0273 123.831 50.8275C123.831 50.5837 123.759 50.3834 123.616 50.2266C123.473 50.0699 123.257 49.9466 122.967 49.8567L121.394 49.3507C120.76 49.1491 120.28 48.8516 119.955 48.4584C119.629 48.0651 119.467 47.599 119.467 47.06C119.467 46.5888 119.583 46.174 119.814 45.8156C120.046 45.4572 120.37 45.1772 120.784 44.9755C121.198 44.7738 121.673 44.673 122.208 44.673C122.7 44.673 123.151 44.7587 123.563 44.9301C123.974 45.1015 124.328 45.3394 124.624 45.6438C124.92 45.9481 125.141 46.3074 125.286 46.7218L124.054 47.269C123.894 46.862 123.653 46.5462 123.329 46.3216C123.005 46.097 122.633 45.9847 122.211 45.9847C121.962 45.9847 121.741 46.026 121.55 46.1085C121.358 46.191 121.21 46.3088 121.106 46.4619C121.001 46.615 120.949 46.7923 120.949 46.994C120.949 47.2213 121.022 47.4221 121.169 47.5962C121.316 47.7704 121.537 47.9042 121.834 47.9977L123.339 48.4735C123.995 48.6807 124.487 48.9722 124.814 49.348C125.141 49.7238 125.305 50.1858 125.305 50.734C125.305 51.2015 125.183 51.6158 124.94 51.977C124.698 52.3382 124.363 52.621 123.935 52.8254C123.508 53.0298 123.012 53.132 122.448 53.132ZM126.914 53V44.805H128.412V48.3827H131.905V44.805H133.404V53H131.905V49.7027H128.412V53H126.914ZM139.294 53.132C138.689 53.132 138.127 53.0261 137.607 52.8144C137.087 52.6026 136.633 52.3052 136.246 51.922C135.858 51.5388 135.555 51.0901 135.337 50.5759C135.119 50.0616 135.01 49.502 135.01 48.897C135.01 48.292 135.117 47.7324 135.333 47.2181C135.548 46.7039 135.85 46.2565 136.237 45.8761C136.625 45.4957 137.079 45.2001 137.599 44.9892C138.118 44.7784 138.684 44.673 139.294 44.673C139.905 44.673 140.47 44.7789 140.989 44.9906C141.509 45.2024 141.963 45.4985 142.351 45.8789C142.738 46.2593 143.04 46.7062 143.255 47.2195C143.471 47.7328 143.579 48.292 143.579 48.897C143.579 49.502 143.47 50.0616 143.251 50.5759C143.033 51.0901 142.73 51.5388 142.342 51.922C141.955 52.3052 141.501 52.6026 140.981 52.8144C140.461 53.0261 139.899 53.132 139.294 53.132ZM139.294 51.7708C139.694 51.7708 140.062 51.6993 140.4 51.5563C140.737 51.4133 141.032 51.213 141.285 50.9554C141.538 50.6978 141.734 50.3939 141.872 50.0437C142.011 49.6936 142.08 49.3113 142.08 48.897C142.08 48.4845 142.011 48.1045 141.872 47.7571C141.734 47.4097 141.538 47.1058 141.285 46.8455C141.032 46.5852 140.737 46.3849 140.4 46.2446C140.062 46.1044 139.694 46.0343 139.294 46.0343C138.894 46.0343 138.526 46.1044 138.189 46.2446C137.851 46.3849 137.556 46.5852 137.303 46.8455C137.05 47.1058 136.854 47.4097 136.716 47.7571C136.578 48.1045 136.508 48.4845 136.508 48.897C136.508 49.3113 136.578 49.6936 136.716 50.0437C136.854 50.3939 137.05 50.6978 137.303 50.9554C137.556 51.213 137.852 51.4133 138.19 51.5563C138.528 51.6993 138.896 51.7708 139.294 51.7708ZM145.185 53V44.805H148.248C148.805 44.805 149.298 44.9054 149.726 45.1061C150.154 45.3069 150.49 45.6002 150.733 45.9861C150.976 46.372 151.097 46.8418 151.097 47.3955C151.097 47.9382 150.974 48.402 150.729 48.787C150.483 49.172 150.147 49.4662 149.719 49.6698C149.292 49.8732 148.802 49.975 148.248 49.975H146.683V53H145.185ZM146.683 48.655H148.267C148.537 48.655 148.771 48.6023 148.969 48.4969C149.167 48.3915 149.321 48.2439 149.432 48.0541C149.543 47.8644 149.598 47.6439 149.598 47.3927C149.598 47.1361 149.543 46.9133 149.432 46.7245C149.321 46.5357 149.167 46.3885 148.969 46.2831C148.771 46.1777 148.537 46.125 148.267 46.125H146.683V48.655ZM152.588 53V44.805H154.086V49.0785L153.682 48.93L157.172 44.805H159.047L155.786 48.6825L155.871 47.6182L159.146 53H157.389L155.189 49.392L154.086 50.6982V53H152.588ZM160.332 53V44.805H165.785V46.125H161.83V48.2315H165.565V49.5515H161.83V51.68H165.785V53H160.332ZM167.152 53V44.805H172.605V46.125H168.65V48.2315H172.385V49.5515H168.65V51.68H172.605V53H167.152ZM173.972 53V44.805H177.035C177.592 44.805 178.085 44.9054 178.513 45.1061C178.941 45.3069 179.277 45.6002 179.52 45.9861C179.763 46.372 179.884 46.8418 179.884 47.3955C179.884 47.9382 179.761 48.402 179.516 48.787C179.27 49.172 178.934 49.4662 178.506 49.6698C178.079 49.8732 177.589 49.975 177.035 49.975H175.47V53H173.972ZM175.47 48.655H177.054C177.324 48.655 177.558 48.6023 177.756 48.4969C177.954 48.3915 178.108 48.2439 178.219 48.0541C178.33 47.8644 178.385 47.6439 178.385 47.3927C178.385 47.1361 178.33 46.9133 178.219 46.7245C178.108 46.5357 177.954 46.3885 177.756 46.2831C177.558 46.1777 177.324 46.125 177.054 46.125H175.47V48.655ZM181.375 53V44.805H186.828V46.125H182.873V48.2315H186.608V49.5515H182.873V51.68H186.828V53H181.375ZM188.195 53V44.805H191.25C191.807 44.805 192.3 44.9054 192.728 45.1061C193.156 45.3069 193.492 45.6002 193.734 45.9861C193.977 46.372 194.099 46.8418 194.099 47.3955C194.099 47.9583 193.965 48.4382 193.696 48.8351C193.427 49.232 193.066 49.5258 192.611 49.7165L194.492 53H192.798L190.78 49.403L191.753 49.975H189.693V53H188.195ZM189.693 48.655H191.269C191.539 48.655 191.772 48.6023 191.97 48.4969C192.168 48.3915 192.323 48.2439 192.434 48.0541C192.545 47.8644 192.6 47.6439 192.6 47.3927C192.6 47.1361 192.545 46.9133 192.434 46.7245C192.323 46.5357 192.168 46.3885 191.97 46.2831C191.772 46.1777 191.539 46.125 191.269 46.125H189.693V48.655ZM200.9 53.132C200.384 53.132 199.905 53.0371 199.46 52.8474C199.015 52.6576 198.634 52.3918 198.316 52.0499C197.998 51.708 197.763 51.3106 197.611 50.8578L198.856 50.3133C199.058 50.7881 199.345 51.158 199.718 51.4229C200.092 51.6878 200.513 51.8203 200.982 51.8203C201.246 51.8203 201.475 51.7785 201.668 51.6951C201.862 51.6117 202.012 51.4962 202.121 51.3486C202.229 51.201 202.283 51.0273 202.283 50.8275C202.283 50.5837 202.211 50.3834 202.068 50.2266C201.925 50.0699 201.709 49.9466 201.419 49.8567L199.846 49.3507C199.212 49.1491 198.732 48.8516 198.407 48.4584C198.081 48.0651 197.919 47.599 197.919 47.06C197.919 46.5888 198.035 46.174 198.266 45.8156C198.498 45.4572 198.822 45.1772 199.236 44.9755C199.65 44.7738 200.125 44.673 200.66 44.673C201.152 44.673 201.603 44.7587 202.015 44.9301C202.426 45.1015 202.78 45.3394 203.076 45.6438C203.372 45.9481 203.593 46.3074 203.738 46.7218L202.506 47.269C202.346 46.862 202.105 46.5462 201.781 46.3216C201.457 46.097 201.085 45.9847 200.663 45.9847C200.414 45.9847 200.193 46.026 200.002 46.1085C199.81 46.191 199.662 46.3088 199.558 46.4619C199.453 46.615 199.401 46.7923 199.401 46.994C199.401 47.2213 199.474 47.4221 199.621 47.5962C199.768 47.7704 199.989 47.9042 200.286 47.9977L201.791 48.4735C202.447 48.6807 202.939 48.9722 203.266 49.348C203.593 49.7238 203.757 50.1858 203.757 50.734C203.757 51.2015 203.635 51.6158 203.392 51.977C203.15 52.3382 202.815 52.621 202.387 52.8254C201.96 53.0298 201.464 53.132 200.9 53.132ZM205.366 53V44.805H208.429C208.986 44.805 209.479 44.9054 209.907 45.1061C210.335 45.3069 210.671 45.6002 210.914 45.9861C211.157 46.372 211.278 46.8418 211.278 47.3955C211.278 47.9382 211.155 48.402 210.91 48.787C210.664 49.172 210.328 49.4662 209.9 49.6698C209.473 49.8732 208.983 49.975 208.429 49.975H206.864V53H205.366ZM206.864 48.655H208.448C208.718 48.655 208.952 48.6023 209.15 48.4969C209.348 48.3915 209.502 48.2439 209.613 48.0541C209.724 47.8644 209.779 47.6439 209.779 47.3927C209.779 47.1361 209.724 46.9133 209.613 46.7245C209.502 46.5357 209.348 46.3885 209.15 46.2831C208.952 46.1777 208.718 46.125 208.448 46.125H206.864V48.655ZM212.769 53V44.805H218.222V46.125H214.267V48.2315H218.002V49.5515H214.267V51.68H218.222V53H212.769ZM223.444 53.132C222.859 53.132 222.318 53.0261 221.82 52.8144C221.322 52.6026 220.889 52.3065 220.519 51.9261C220.15 51.5457 219.862 51.0988 219.656 50.5855C219.45 50.0722 219.347 49.5102 219.347 48.8997C219.347 48.2892 219.448 47.726 219.652 47.2099C219.855 46.6938 220.142 46.2465 220.511 45.8679C220.881 45.4893 221.314 45.1955 221.812 44.9865C222.31 44.7775 222.854 44.673 223.444 44.673C224.029 44.673 224.554 44.772 225.02 44.97C225.486 45.168 225.88 45.4297 226.204 45.7551C226.527 46.0805 226.758 46.4376 226.895 46.8263L225.559 47.4615C225.403 47.0453 225.142 46.7034 224.775 46.4357C224.408 46.1681 223.965 46.0343 223.444 46.0343C222.931 46.0343 222.478 46.1552 222.086 46.3972C221.693 46.6392 221.388 46.9738 221.171 47.401C220.954 47.8282 220.845 48.3277 220.845 48.8997C220.845 49.4699 220.954 49.9704 221.171 50.4013C221.388 50.8321 221.693 51.168 222.086 51.4091C222.478 51.6502 222.931 51.7708 223.444 51.7708C223.965 51.7708 224.408 51.6374 224.775 51.3706C225.142 51.1039 225.403 50.7624 225.559 50.3463L226.895 50.9815C226.758 51.3683 226.527 51.7245 226.204 52.0499C225.88 52.3753 225.486 52.637 225.02 52.835C224.554 53.033 224.029 53.132 223.444 53.132ZM228.378 53V44.805H229.876V53H228.378ZM231.056 53L233.883 44.805H235.819L238.646 53H237.021L236.432 51.2455H233.264L232.673 53H231.056ZM233.691 49.9255H236.001L234.645 45.8445H235.057L233.691 49.9255ZM239.829 53V44.805H241.327V51.68H244.834V53H239.829ZM252.352 53.132C251.747 53.132 251.185 53.0261 250.665 52.8144C250.145 52.6026 249.691 52.3052 249.304 51.922C248.916 51.5388 248.613 51.0901 248.395 50.5759C248.177 50.0616 248.068 49.502 248.068 48.897C248.068 48.292 248.175 47.7324 248.391 47.2181C248.606 46.7039 248.908 46.2565 249.295 45.8761C249.683 45.4957 250.137 45.2001 250.657 44.9892C251.176 44.7784 251.742 44.673 252.352 44.673C252.963 44.673 253.528 44.7789 254.047 44.9906C254.567 45.2024 255.021 45.4985 255.409 45.8789C255.796 46.2593 256.098 46.7062 256.313 47.2195C256.529 47.7328 256.637 48.292 256.637 48.897C256.637 49.502 256.528 50.0616 256.309 50.5759C256.091 51.0901 255.788 51.5388 255.4 51.922C255.013 52.3052 254.559 52.6026 254.039 52.8144C253.519 53.0261 252.957 53.132 252.352 53.132ZM252.352 51.7708C252.752 51.7708 253.12 51.6993 253.458 51.5563C253.795 51.4133 254.09 51.213 254.343 50.9554C254.596 50.6978 254.792 50.3939 254.93 50.0437C255.069 49.6936 255.138 49.3113 255.138 48.897C255.138 48.4845 255.069 48.1045 254.93 47.7571C254.792 47.4097 254.596 47.1058 254.343 46.8455C254.09 46.5852 253.795 46.3849 253.458 46.2446C253.12 46.1044 252.752 46.0343 252.352 46.0343C251.952 46.0343 251.584 46.1044 251.247 46.2446C250.909 46.3849 250.614 46.5852 250.361 46.8455C250.108 47.1058 249.912 47.4097 249.774 47.7571C249.636 48.1045 249.566 48.4845 249.566 48.897C249.566 49.3113 249.636 49.6936 249.774 50.0437C249.912 50.3939 250.108 50.6978 250.361 50.9554C250.614 51.213 250.91 51.4133 251.248 51.5563C251.586 51.6993 251.954 51.7708 252.352 51.7708ZM258.243 53V44.805H263.715V46.125H259.741V48.3965H263.22V49.7165H259.741V53H258.243ZM264.964 53V44.805H270.436V46.125H266.462V48.3965H269.941V49.7165H266.462V53H264.964ZM271.685 53V44.805H277.138V46.125H273.183V48.2315H276.918V49.5515H273.183V51.68H277.138V53H271.685ZM278.505 53V44.805H281.56C282.117 44.805 282.61 44.9054 283.038 45.1061C283.466 45.3069 283.802 45.6002 284.044 45.9861C284.287 46.372 284.409 46.8418 284.409 47.3955C284.409 47.9583 284.275 48.4382 284.006 48.8351C283.737 49.232 283.376 49.5258 282.921 49.7165L284.802 53H283.108L281.09 49.403L282.063 49.975H280.003V53H278.505ZM280.003 48.655H281.579C281.849 48.655 282.082 48.6023 282.28 48.4969C282.478 48.3915 282.633 48.2439 282.744 48.0541C282.855 47.8644 282.91 47.6439 282.91 47.3927C282.91 47.1361 282.855 46.9133 282.744 46.7245C282.633 46.5357 282.478 46.3885 282.28 46.2831C282.082 46.1777 281.849 46.125 281.579 46.125H280.003V48.655Z" fill="white"/>
</g>
<g filter="url(#filter2_f_2204_4)">
<rect x="233" y="-28" width="176" height="176" rx="88" fill="white" fill-opacity="0.1"/>
</g>
<g filter="url(#filter3_f_2204_4)">
<rect x="-11" y="171.5" width="144" height="144" rx="72" fill="#FBBF24" fill-opacity="0.2"/>
</g>
<foreignObject x="51" y="63.5" width="295" height="172"><div xmlns="http://www.w3.org/1999/xhtml" style="backdrop-filter:blur(2px);clip-path:url(#bgblur_2_2204_4_clip_path);height:100%;width:100%"></div></foreignObject><g data-figma-bg-blur-radius="4">
<rect x="55" y="74.5" width="280" height="157" rx="16" fill="white" fill-opacity="0.95"/>
<rect x="55.5" y="75" width="279" height="156" rx="15.5" stroke="white" stroke-opacity="0.8"/>
<g filter="url(#filter5_dd_2204_4)">
<rect x="55" y="78.5" width="280" height="153" rx="16" fill="white" fill-opacity="0.01" shape-rendering="crispEdges"/>
</g>
<rect x="72.5" y="96" width="245" height="118" rx="11.5" fill="#FBF9FD"/>
<rect x="72.5" y="96" width="245" height="118" rx="11.5" stroke="#E9D5FF" stroke-dasharray="3 2"/>
<rect x="85" y="108.5" width="16" height="16" rx="4" fill="#10B981"/>
<path fill-rule="evenodd" clip-rule="evenodd" d="M96.3535 114.147C96.5487 114.342 96.5487 114.658 96.3535 114.854L92.3535 118.853C92.1582 119.049 91.8417 119.049 91.6465 118.853L89.6465 116.854C89.457 116.657 89.4597 116.345 89.6526 116.153C89.8454 115.96 90.1573 115.957 90.3535 116.147L92 117.793L95.6465 114.147C95.8417 113.951 96.1582 113.951 96.3535 114.147V114.147" fill="white"/>
<rect x="107" y="112.5" width="64" height="8" rx="4" fill="#D4D4D4"/>
<path d="M246.275 119.608C245.796 119.608 245.352 119.521 244.943 119.348C244.533 119.175 244.175 118.933 243.869 118.621C243.562 118.31 243.323 117.944 243.152 117.524C242.981 117.104 242.895 116.645 242.895 116.145C242.895 115.646 242.979 115.185 243.145 114.763C243.312 114.34 243.546 113.974 243.848 113.665C244.151 113.355 244.505 113.115 244.913 112.943C245.32 112.772 245.765 112.687 246.248 112.687C246.726 112.687 247.156 112.768 247.537 112.93C247.918 113.092 248.241 113.306 248.506 113.572C248.771 113.839 248.959 114.131 249.072 114.449L247.985 114.973C247.857 114.628 247.643 114.346 247.343 114.128C247.042 113.91 246.677 113.801 246.248 113.801C245.828 113.801 245.457 113.9 245.136 114.098C244.815 114.296 244.566 114.569 244.388 114.919C244.211 115.269 244.122 115.677 244.122 116.145C244.122 116.612 244.214 117.021 244.398 117.374C244.583 117.726 244.837 118.001 245.16 118.198C245.483 118.396 245.855 118.494 246.275 118.494C246.614 118.494 246.927 118.426 247.215 118.291C247.503 118.155 247.735 117.962 247.91 117.712C248.084 117.463 248.172 117.167 248.172 116.825V116.314L248.732 116.8H246.248V115.765H249.398V116.438C249.398 116.957 249.311 117.414 249.137 117.81C248.963 118.206 248.728 118.538 248.432 118.806C248.135 119.074 247.8 119.274 247.427 119.408C247.053 119.541 246.669 119.608 246.275 119.608ZM253.209 119.608C252.788 119.608 252.395 119.53 252.032 119.375C251.668 119.22 251.356 119.002 251.096 118.723C250.835 118.443 250.643 118.118 250.518 117.747L251.538 117.302C251.703 117.69 251.938 117.993 252.243 118.21C252.548 118.426 252.893 118.535 253.277 118.535C253.493 118.535 253.68 118.501 253.838 118.432C253.997 118.364 254.12 118.27 254.208 118.149C254.297 118.028 254.341 117.886 254.341 117.722C254.341 117.523 254.283 117.359 254.166 117.231C254.049 117.103 253.872 117.002 253.635 116.928L252.348 116.514C251.829 116.349 251.436 116.106 251.17 115.784C250.904 115.462 250.77 115.081 250.77 114.64C250.77 114.254 250.865 113.915 251.055 113.622C251.245 113.329 251.509 113.099 251.848 112.935C252.187 112.769 252.576 112.687 253.014 112.687C253.416 112.687 253.785 112.757 254.122 112.897C254.459 113.038 254.748 113.232 254.99 113.481C255.233 113.73 255.413 114.024 255.531 114.363L254.523 114.811C254.393 114.478 254.195 114.22 253.931 114.036C253.666 113.852 253.361 113.76 253.016 113.76C252.812 113.76 252.632 113.794 252.475 113.861C252.318 113.929 252.197 114.025 252.111 114.151C252.026 114.276 251.983 114.421 251.983 114.586C251.983 114.772 252.043 114.936 252.163 115.079C252.283 115.221 252.465 115.331 252.708 115.407L253.938 115.796C254.475 115.966 254.878 116.205 255.146 116.512C255.413 116.819 255.547 117.197 255.547 117.646C255.547 118.028 255.448 118.367 255.249 118.663C255.05 118.958 254.776 119.19 254.427 119.357C254.077 119.524 253.671 119.608 253.209 119.608ZM258.283 119.5V113.875H256.544V112.795H261.224V113.875H259.509V119.5H258.283ZM264.468 119.5V112.795H265.695V119.5H264.468ZM267.429 119.5V112.795H268.39L272.073 117.763L271.581 117.864V112.795H272.807V119.5H271.839L268.203 114.496L268.656 114.395V119.5H267.429ZM276.339 119.5L274.004 112.795H275.338L277.174 118.348H276.909L278.742 112.795H280.079L277.743 119.5H276.339ZM284.399 119.608C283.904 119.608 283.444 119.521 283.019 119.348C282.593 119.175 282.222 118.932 281.905 118.618C281.588 118.304 281.34 117.937 281.161 117.517C280.983 117.096 280.893 116.638 280.893 116.143C280.893 115.648 280.982 115.19 281.158 114.769C281.334 114.349 281.581 113.983 281.898 113.671C282.215 113.36 282.587 113.118 283.012 112.946C283.437 112.773 283.899 112.687 284.399 112.687C284.898 112.687 285.361 112.774 285.786 112.947C286.211 113.12 286.583 113.362 286.9 113.674C287.217 113.985 287.464 114.351 287.64 114.771C287.816 115.19 287.904 115.648 287.904 116.143C287.904 116.638 287.815 117.096 287.637 117.517C287.458 117.937 287.21 118.304 286.893 118.618C286.576 118.932 286.205 119.175 285.779 119.348C285.354 119.521 284.894 119.608 284.399 119.608ZM284.399 118.494C284.726 118.494 285.027 118.436 285.303 118.319C285.579 118.202 285.821 118.038 286.028 117.827C286.235 117.616 286.395 117.368 286.508 117.081C286.622 116.795 286.678 116.482 286.678 116.143C286.678 115.806 286.622 115.495 286.508 115.21C286.395 114.926 286.235 114.678 286.028 114.465C285.821 114.251 285.579 114.088 285.303 113.973C285.027 113.858 284.726 113.801 284.399 113.801C284.072 113.801 283.77 113.858 283.494 113.973C283.218 114.088 282.977 114.251 282.77 114.465C282.563 114.678 282.403 114.926 282.29 115.21C282.176 115.495 282.12 115.806 282.12 116.143C282.12 116.482 282.176 116.795 282.29 117.081C282.403 117.368 282.563 117.616 282.77 117.827C282.977 118.038 283.219 118.202 283.496 118.319C283.772 118.436 284.073 118.494 284.399 118.494ZM289.443 119.5V112.795H290.67V119.5H289.443ZM295.559 119.608C295.08 119.608 294.638 119.521 294.23 119.348C293.823 119.175 293.468 118.933 293.166 118.621C292.864 118.31 292.628 117.944 292.46 117.524C292.291 117.104 292.206 116.645 292.206 116.145C292.206 115.646 292.29 115.185 292.456 114.763C292.623 114.34 292.857 113.974 293.159 113.665C293.462 113.355 293.816 113.115 294.224 112.943C294.631 112.772 295.076 112.687 295.559 112.687C296.037 112.687 296.467 112.768 296.848 112.93C297.229 113.092 297.552 113.306 297.817 113.572C298.082 113.839 298.27 114.131 298.383 114.449L297.289 114.969C297.162 114.628 296.948 114.348 296.648 114.129C296.348 113.91 295.985 113.801 295.559 113.801C295.139 113.801 294.768 113.9 294.447 114.098C294.126 114.296 293.877 114.569 293.699 114.919C293.522 115.269 293.433 115.677 293.433 116.145C293.433 116.612 293.522 117.021 293.699 117.374C293.877 117.726 294.126 118.001 294.447 118.198C294.768 118.396 295.139 118.494 295.559 118.494C295.985 118.494 296.348 118.385 296.648 118.167C296.948 117.949 297.162 117.669 297.289 117.329L298.383 117.848C298.27 118.165 298.082 118.456 297.817 118.723C297.552 118.989 297.229 119.203 296.848 119.365C296.467 119.527 296.037 119.608 295.559 119.608ZM299.82 119.5V112.795H304.282V113.875H301.047V115.599H304.102V116.679H301.047V118.42H304.282V119.5H299.82Z" fill="#582C83"/>
<rect x="85" y="136.5" width="220" height="6" rx="3" fill="#E5E5E5"/>
<rect x="85" y="148.5" width="176" height="6" rx="3" fill="#E5E5E5"/>
<rect x="85" y="160.5" width="146.66" height="6" rx="3" fill="#E5E5E5"/>
<rect x="217.53" y="182.5" width="87.47" height="19" rx="6" fill="#F3E8FF"/>
<path d="M226.614 193.233L227.185 192.647L229.046 194.474L232.903 190.636L233.494 191.217L229.046 195.655L226.614 193.233ZM240.403 196.62C239.871 196.62 239.378 196.524 238.923 196.331C238.468 196.139 238.07 195.87 237.729 195.524C237.388 195.178 237.123 194.772 236.933 194.305C236.743 193.838 236.648 193.327 236.648 192.772C236.648 192.217 236.74 191.705 236.925 191.236C237.11 190.767 237.371 190.36 237.707 190.016C238.042 189.672 238.437 189.405 238.889 189.215C239.342 189.025 239.836 188.93 240.373 188.93C240.904 188.93 241.382 189.02 241.805 189.2C242.229 189.38 242.587 189.618 242.882 189.914C243.176 190.21 243.385 190.534 243.51 190.888L242.303 191.47C242.161 191.087 241.923 190.774 241.589 190.531C241.255 190.289 240.849 190.168 240.373 190.168C239.906 190.168 239.494 190.277 239.138 190.497C238.781 190.717 238.504 191.022 238.307 191.41C238.109 191.798 238.01 192.252 238.01 192.772C238.01 193.291 238.113 193.746 238.318 194.138C238.523 194.529 238.805 194.835 239.164 195.054C239.523 195.273 239.936 195.383 240.403 195.383C240.779 195.383 241.128 195.307 241.448 195.156C241.768 195.005 242.025 194.791 242.219 194.514C242.413 194.236 242.51 193.907 242.51 193.527V192.96L243.133 193.5H240.373V192.35H243.873V193.098C243.873 193.674 243.776 194.183 243.583 194.623C243.389 195.063 243.128 195.431 242.799 195.729C242.47 196.026 242.098 196.249 241.683 196.397C241.268 196.546 240.841 196.62 240.403 196.62ZM247.608 196.62C247.139 196.62 246.703 196.534 246.299 196.361C245.895 196.189 245.548 195.947 245.259 195.636C244.97 195.325 244.756 194.964 244.618 194.553L245.75 194.058C245.934 194.489 246.195 194.825 246.534 195.066C246.873 195.307 247.256 195.428 247.683 195.428C247.923 195.428 248.131 195.39 248.307 195.314C248.482 195.238 248.619 195.133 248.718 194.999C248.816 194.865 248.865 194.707 248.865 194.525C248.865 194.303 248.8 194.121 248.67 193.979C248.54 193.836 248.344 193.724 248.08 193.642L246.65 193.182C246.074 192.999 245.637 192.729 245.342 192.371C245.046 192.014 244.898 191.59 244.898 191.1C244.898 190.672 245.003 190.295 245.214 189.969C245.425 189.643 245.719 189.388 246.095 189.205C246.472 189.022 246.904 188.93 247.39 188.93C247.837 188.93 248.247 189.008 248.622 189.164C248.996 189.32 249.317 189.536 249.587 189.813C249.856 190.089 250.056 190.416 250.188 190.793L249.068 191.29C248.923 190.92 248.703 190.633 248.409 190.429C248.115 190.225 247.776 190.122 247.393 190.122C247.166 190.122 246.966 190.16 246.792 190.235C246.617 190.31 246.483 190.417 246.388 190.556C246.293 190.695 246.245 190.857 246.245 191.04C246.245 191.247 246.312 191.429 246.445 191.587C246.579 191.746 246.78 191.867 247.05 191.952L248.418 192.385C249.014 192.573 249.462 192.838 249.759 193.18C250.057 193.522 250.205 193.942 250.205 194.44C250.205 194.865 250.095 195.242 249.874 195.57C249.653 195.898 249.349 196.155 248.96 196.341C248.572 196.527 248.121 196.62 247.608 196.62ZM252.745 196.5V190.25H250.813V189.05H256.013V190.25H254.108V196.5H252.745ZM260.608 196.5L258.013 189.05H259.495L261.535 195.22H261.24L263.278 189.05H264.763L262.168 196.5H260.608ZM267.56 196.62C267 196.62 266.51 196.493 266.089 196.24C265.668 195.987 265.341 195.644 265.108 195.213C264.874 194.781 264.758 194.3 264.758 193.77C264.758 193.225 264.877 192.74 265.117 192.316C265.356 191.892 265.679 191.558 266.087 191.312C266.494 191.068 266.954 190.945 267.465 190.945C267.887 190.945 268.261 191.014 268.587 191.153C268.912 191.291 269.188 191.483 269.414 191.729C269.64 191.975 269.812 192.257 269.93 192.575C270.049 192.893 270.108 193.235 270.108 193.6C270.108 193.697 270.103 193.794 270.094 193.893C270.085 193.991 270.069 194.078 270.045 194.155H265.845V193.155H269.3L268.678 193.62C268.743 193.313 268.73 193.04 268.639 192.8C268.548 192.56 268.401 192.37 268.197 192.23C267.992 192.09 267.749 192.02 267.465 192.02C267.187 192.02 266.942 192.089 266.732 192.228C266.521 192.366 266.36 192.566 266.25 192.829C266.14 193.091 266.097 193.408 266.12 193.78C266.092 194.117 266.137 194.412 266.254 194.666C266.372 194.92 266.545 195.118 266.774 195.259C267.003 195.4 267.27 195.47 267.575 195.47C267.874 195.47 268.127 195.407 268.337 195.28C268.546 195.153 268.711 194.985 268.833 194.775L269.893 195.287C269.786 195.547 269.619 195.778 269.392 195.979C269.164 196.18 268.895 196.337 268.584 196.45C268.273 196.563 267.932 196.62 267.56 196.62ZM271.098 196.5V191.065H272.335V192.268L272.235 192.092C272.357 191.684 272.554 191.4 272.825 191.241C273.097 191.082 273.421 191.003 273.798 191.003H274.123V192.165H273.653C273.281 192.165 272.981 192.279 272.753 192.506C272.524 192.734 272.41 193.055 272.41 193.47V196.5H271.098ZM274.838 196.5V191.065H276.15V196.5H274.838ZM274.838 190.45V189.05H276.15V190.45H274.838ZM277.99 196.5V192.228H277.033V191.065H277.99V190.885C277.99 190.467 278.075 190.113 278.244 189.824C278.413 189.535 278.652 189.313 278.96 189.16C279.269 189.007 279.632 188.93 280.05 188.93C280.132 188.93 280.221 188.935 280.318 188.945C280.414 188.955 280.494 188.967 280.558 188.98V190.11C280.496 190.097 280.437 190.088 280.379 190.085C280.322 190.082 280.269 190.08 280.22 190.08C279.93 190.08 279.705 190.145 279.544 190.276C279.383 190.407 279.303 190.61 279.303 190.885V191.065H281.683V192.228H279.303V196.5H277.99ZM281.195 196.5V191.065H282.508V196.5H281.195ZM286.18 196.62C285.62 196.62 285.13 196.493 284.709 196.24C284.288 195.987 283.961 195.644 283.728 195.213C283.494 194.781 283.378 194.3 283.378 193.77C283.378 193.225 283.497 192.74 283.737 192.316C283.976 191.892 284.299 191.558 284.707 191.312C285.114 191.068 285.574 190.945 286.085 190.945C286.507 190.945 286.881 191.014 287.207 191.153C287.532 191.291 287.808 191.483 288.034 191.729C288.26 191.975 288.432 192.257 288.55 192.575C288.669 192.893 288.728 193.235 288.728 193.6C288.728 193.697 288.723 193.794 288.714 193.893C288.705 193.991 288.689 194.078 288.665 194.155H284.465V193.155H287.92L287.298 193.62C287.363 193.313 287.35 193.04 287.259 192.8C287.168 192.56 287.021 192.37 286.817 192.23C286.612 192.09 286.369 192.02 286.085 192.02C285.807 192.02 285.562 192.089 285.352 192.228C285.141 192.366 284.98 192.566 284.87 192.829C284.76 193.091 284.717 193.408 284.74 193.78C284.712 194.117 284.757 194.412 284.874 194.666C284.992 194.92 285.165 195.118 285.394 195.259C285.623 195.4 285.89 195.47 286.195 195.47C286.494 195.47 286.747 195.407 286.957 195.28C287.166 195.153 287.331 194.985 287.453 194.775L288.513 195.287C288.406 195.547 288.239 195.778 288.012 195.979C287.784 196.18 287.515 196.337 287.204 196.45C286.893 196.563 286.552 196.62 286.18 196.62ZM292.25 196.62C291.725 196.62 291.255 196.495 290.84 196.244C290.425 195.993 290.098 195.652 289.858 195.221C289.618 194.79 289.498 194.311 289.498 193.782C289.498 193.248 289.619 192.766 289.862 192.339C290.104 191.911 290.432 191.572 290.847 191.321C291.261 191.07 291.726 190.945 292.243 190.945C292.658 190.945 293.027 191.026 293.349 191.189C293.672 191.351 293.926 191.578 294.113 191.867L293.91 192.145V188.93H295.223V196.5H293.985V195.45L294.12 195.71C293.934 196.007 293.674 196.233 293.342 196.387C293.009 196.542 292.645 196.62 292.25 196.62ZM292.395 195.42C292.69 195.42 292.952 195.35 293.179 195.21C293.407 195.07 293.585 194.876 293.715 194.629C293.845 194.381 293.91 194.099 293.91 193.782C293.91 193.466 293.845 193.184 293.715 192.936C293.585 192.689 293.407 192.495 293.179 192.355C292.952 192.215 292.69 192.145 292.395 192.145C292.102 192.145 291.838 192.216 291.604 192.359C291.37 192.501 291.187 192.695 291.057 192.939C290.926 193.183 290.86 193.464 290.86 193.782C290.86 194.099 290.926 194.381 291.057 194.629C291.187 194.876 291.369 195.07 291.603 195.21C291.836 195.35 292.1 195.42 292.395 195.42Z" fill="#582C83"/>
<rect x="311" y="68.5" width="30" height="30" rx="15" fill="#FBBF24"/>
<rect x="311" y="68.5" width="30" height="30" rx="15" stroke="white" stroke-width="2"/>
<g filter="url(#filter6_dd_2204_4)">
<rect x="310" y="67.5" width="32" height="32" rx="16" fill="white" fill-opacity="0.01" shape-rendering="crispEdges"/>
</g>
<path d="M326 87.0133L330.12 89.5L329.027 84.8133L332.667 81.66L327.873 81.2533L326 76.8333L324.127 81.2533L319.333 81.66L322.973 84.8133L321.88 89.5L326 87.0133" fill="#4F1F76"/>
</g>
<g filter="url(#filter7_d_2204_4)">
<path d="M82.404 256.5V248.82H80.034V247.56H86.154V248.82H83.814V256.5H82.404ZM86.658 256.5V250.008H87.948V251.322L87.828 251.13C87.976 250.702 88.21 250.395 88.53 250.209C88.85 250.023 89.234 249.93 89.682 249.93H90.078V251.16H89.514C89.062 251.16 88.698 251.299 88.422 251.577C88.146 251.855 88.008 252.248 88.008 252.756V256.5H86.658ZM93.618 256.644C93.13 256.644 92.701 256.534 92.331 256.314C91.961 256.094 91.675 255.787 91.473 255.393C91.271 254.999 91.17 254.542 91.17 254.022V250.008H92.52V253.896C92.52 254.192 92.58 254.452 92.7 254.676C92.82 254.9 92.989 255.074 93.207 255.198C93.425 255.322 93.674 255.384 93.954 255.384C94.238 255.384 94.489 255.321 94.707 255.195C94.925 255.069 95.095 254.89 95.217 254.658C95.339 254.426 95.4 254.152 95.4 253.836V250.008H96.75V256.5H95.46V255.228L95.61 255.396C95.458 255.8 95.205 256.109 94.851 256.323C94.497 256.537 94.086 256.644 93.618 256.644ZM101.034 256.644C100.366 256.644 99.783 256.481 99.285 256.155C98.787 255.829 98.438 255.388 98.238 254.832L99.276 254.34C99.452 254.712 99.695 255.006 100.005 255.222C100.315 255.438 100.658 255.546 101.034 255.546C101.354 255.546 101.614 255.473 101.814 255.327C102.014 255.181 102.114 254.986 102.114 254.742C102.114 254.582 102.07 254.452 101.982 254.352C101.894 254.252 101.784 254.17 101.652 254.106C101.52 254.042 101.386 253.992 101.25 253.956L100.23 253.668C99.666 253.508 99.246 253.267 98.97 252.945C98.694 252.623 98.556 252.246 98.556 251.814C98.556 251.422 98.656 251.08 98.856 250.788C99.056 250.496 99.332 250.269 99.684 250.107C100.036 249.945 100.434 249.864 100.878 249.864C101.47 249.864 101.998 250.01 102.462 250.302C102.926 250.594 103.254 251.002 103.446 251.526L102.396 252.018C102.268 251.702 102.066 251.452 101.79 251.268C101.514 251.084 101.204 250.992 100.86 250.992C100.564 250.992 100.329 251.062 100.155 251.202C99.981 251.342 99.894 251.524 99.894 251.748C99.894 251.9 99.934 252.026 100.014 252.126C100.094 252.226 100.198 252.306 100.326 252.366C100.454 252.426 100.586 252.476 100.722 252.516L101.778 252.828C102.31 252.984 102.721 253.223 103.011 253.545C103.301 253.867 103.446 254.254 103.446 254.706C103.446 255.086 103.344 255.422 103.14 255.714C102.936 256.006 102.654 256.234 102.294 256.398C101.934 256.562 101.514 256.644 101.034 256.644ZM107.886 256.572C107.202 256.572 106.673 256.381 106.299 255.999C105.925 255.617 105.738 255.078 105.738 254.382V251.238H104.592V250.008H104.772C105.076 250.008 105.313 249.921 105.483 249.747C105.653 249.573 105.738 249.334 105.738 249.03V248.52H107.088V250.008H108.564V251.238H107.088V254.322C107.088 254.542 107.124 254.73 107.196 254.886C107.268 255.042 107.385 255.162 107.547 255.246C107.709 255.33 107.918 255.372 108.174 255.372C108.234 255.372 108.304 255.368 108.384 255.36C108.464 255.352 108.54 255.344 108.612 255.336V256.5C108.504 256.52 108.382 256.537 108.246 256.551C108.11 256.565 107.99 256.572 107.886 256.572ZM113.16 256.644C112.512 256.644 111.939 256.494 111.441 256.194C110.943 255.894 110.554 255.486 110.274 254.97C109.994 254.454 109.854 253.876 109.854 253.236C109.854 252.584 109.995 252.005 110.277 251.499C110.559 250.993 110.941 250.594 111.423 250.302C111.905 250.01 112.448 249.864 113.052 249.864C113.544 249.864 113.981 249.948 114.363 250.116C114.745 250.284 115.069 250.515 115.335 250.809C115.601 251.103 115.804 251.438 115.944 251.814C116.084 252.19 116.154 252.588 116.154 253.008C116.154 253.112 116.149 253.22 116.139 253.332C116.129 253.444 116.112 253.548 116.088 253.644H110.916V252.564H115.32L114.678 253.056C114.754 252.664 114.727 252.314 114.597 252.006C114.467 251.698 114.267 251.454 113.997 251.274C113.727 251.094 113.412 251.004 113.052 251.004C112.696 251.004 112.377 251.094 112.095 251.274C111.813 251.454 111.596 251.711 111.444 252.045C111.292 252.379 111.232 252.78 111.264 253.248C111.228 253.688 111.291 254.073 111.453 254.403C111.615 254.733 111.847 254.989 112.149 255.171C112.451 255.353 112.792 255.444 113.172 255.444C113.568 255.444 113.903 255.356 114.177 255.18C114.451 255.004 114.67 254.776 114.834 254.496L115.938 255.042C115.81 255.346 115.611 255.619 115.341 255.861C115.071 256.103 114.751 256.294 114.381 256.434C114.011 256.574 113.604 256.644 113.16 256.644ZM120.768 256.644C120.148 256.644 119.592 256.495 119.1 256.197C118.608 255.899 118.22 255.493 117.936 254.979C117.652 254.465 117.51 253.89 117.51 253.254C117.51 252.61 117.653 252.033 117.939 251.523C118.225 251.013 118.613 250.609 119.103 250.311C119.593 250.013 120.146 249.864 120.762 249.864C121.278 249.864 121.737 249.969 122.139 250.179C122.541 250.389 122.858 250.678 123.09 251.046L122.88 251.352V247.416H124.23V256.5H122.94V255.18L123.096 255.432C122.872 255.824 122.553 256.124 122.139 256.332C121.725 256.54 121.268 256.644 120.768 256.644ZM120.9 255.384C121.28 255.384 121.619 255.292 121.917 255.108C122.215 254.924 122.45 254.671 122.622 254.349C122.794 254.027 122.88 253.662 122.88 253.254C122.88 252.846 122.794 252.481 122.622 252.159C122.45 251.837 122.215 251.584 121.917 251.4C121.619 251.216 121.28 251.124 120.9 251.124C120.524 251.124 120.185 251.217 119.883 251.403C119.581 251.589 119.345 251.841 119.175 252.159C119.005 252.477 118.92 252.842 118.92 253.254C118.92 253.662 119.005 254.027 119.175 254.349C119.345 254.671 119.58 254.924 119.88 255.108C120.18 255.292 120.52 255.384 120.9 255.384ZM131.976 256.644C131.476 256.644 131.02 256.54 130.608 256.332C130.196 256.124 129.876 255.824 129.648 255.432L129.804 255.18V256.5H128.514V247.416H129.864V251.352L129.654 251.046C129.89 250.678 130.208 250.389 130.608 250.179C131.008 249.969 131.466 249.864 131.982 249.864C132.598 249.864 133.151 250.013 133.641 250.311C134.131 250.609 134.519 251.013 134.805 251.523C135.091 252.033 135.234 252.61 135.234 253.254C135.234 253.89 135.092 254.465 134.808 254.979C134.524 255.493 134.137 255.899 133.647 256.197C133.157 256.495 132.6 256.644 131.976 256.644ZM131.844 255.384C132.228 255.384 132.569 255.292 132.867 255.108C133.165 254.924 133.399 254.671 133.569 254.349C133.739 254.027 133.824 253.662 133.824 253.254C133.824 252.842 133.739 252.477 133.569 252.159C133.399 251.841 133.165 251.589 132.867 251.403C132.569 251.217 132.228 251.124 131.844 251.124C131.468 251.124 131.13 251.216 130.83 251.4C130.53 251.584 130.294 251.837 130.122 252.159C129.95 252.481 129.864 252.846 129.864 253.254C129.864 253.662 129.95 254.027 130.122 254.349C130.294 254.671 130.53 254.924 130.83 255.108C131.13 255.292 131.468 255.384 131.844 255.384ZM137.31 259.14C137.15 259.14 136.992 259.127 136.836 259.101C136.68 259.075 136.536 259.032 136.404 258.972V257.814C136.5 257.834 136.617 257.855 136.755 257.877C136.893 257.899 137.026 257.91 137.154 257.91C137.526 257.91 137.802 257.828 137.982 257.664C138.162 257.5 138.326 257.25 138.474 256.914L138.9 255.924L138.876 257.07L136.074 250.008H137.526L139.596 255.42H139.11L141.174 250.008H142.638L139.764 257.214C139.612 257.594 139.423 257.93 139.197 258.222C138.971 258.514 138.703 258.74 138.393 258.9C138.083 259.06 137.722 259.14 137.31 259.14ZM149.052 256.644C148.584 256.644 148.141 256.559 147.723 256.389C147.305 256.219 146.944 255.977 146.64 255.663C146.336 255.349 146.122 254.974 145.998 254.538L147.186 254.082C147.338 254.506 147.585 254.829 147.927 255.051C148.269 255.273 148.644 255.384 149.052 255.384C149.388 255.384 149.685 255.309 149.943 255.159C150.201 255.009 150.403 254.802 150.549 254.538C150.695 254.274 150.768 253.974 150.768 253.638C150.768 253.294 150.694 252.992 150.546 252.732C150.398 252.472 150.196 252.268 149.94 252.12C149.684 251.972 149.39 251.898 149.058 251.898C148.718 251.898 148.409 251.974 148.131 252.126C147.853 252.278 147.65 252.482 147.522 252.738L146.382 252.486L147.078 247.56H151.836V248.76H147.63L148.164 248.178L147.648 251.946L147.21 251.64C147.45 251.304 147.741 251.061 148.083 250.911C148.425 250.761 148.816 250.686 149.256 250.686C149.844 250.686 150.356 250.816 150.792 251.076C151.228 251.336 151.568 251.687 151.812 252.129C152.056 252.571 152.178 253.074 152.178 253.638C152.178 254.206 152.042 254.718 151.77 255.174C151.498 255.63 151.127 255.989 150.657 256.251C150.187 256.513 149.652 256.644 149.052 256.644ZM157.452 256.644C156.743 256.644 156.121 256.451 155.585 256.065C155.05 255.679 154.632 255.139 154.332 254.445C154.032 253.752 153.882 252.944 153.882 252.021C153.882 251.099 154.031 250.293 154.33 249.602C154.628 248.911 155.044 248.374 155.576 247.991C156.109 247.608 156.73 247.416 157.44 247.416C158.156 247.416 158.781 247.608 159.314 247.992C159.847 248.376 160.263 248.914 160.562 249.606C160.861 250.298 161.01 251.104 161.01 252.024C161.01 252.944 160.862 253.751 160.566 254.445C160.27 255.139 159.855 255.679 159.321 256.065C158.787 256.451 158.164 256.644 157.452 256.644ZM157.455 255.354C157.897 255.354 158.278 255.218 158.598 254.946C158.918 254.674 159.166 254.289 159.342 253.791C159.518 253.293 159.606 252.704 159.606 252.024C159.606 251.344 159.518 250.756 159.342 250.26C159.166 249.764 158.917 249.381 158.595 249.111C158.273 248.841 157.888 248.706 157.441 248.706C157 248.706 156.62 248.841 156.3 249.111C155.98 249.381 155.732 249.764 155.556 250.26C155.38 250.756 155.292 251.344 155.292 252.023C155.292 252.696 155.38 253.282 155.556 253.782C155.732 254.282 155.982 254.669 156.306 254.943C156.63 255.217 157.013 255.354 157.455 255.354ZM163.182 258.27V257.61C163.442 257.546 163.645 257.423 163.791 257.241C163.937 257.059 164.024 256.812 164.052 256.5H163.422V254.94H164.802V255.966C164.802 256.606 164.666 257.121 164.394 257.511C164.122 257.901 163.718 258.154 163.182 258.27ZM170.58 256.644C169.871 256.644 169.249 256.451 168.713 256.065C168.178 255.679 167.76 255.139 167.46 254.445C167.16 253.752 167.01 252.944 167.01 252.021C167.01 251.099 167.159 250.293 167.458 249.602C167.756 248.911 168.172 248.374 168.704 247.991C169.237 247.608 169.858 247.416 170.568 247.416C171.284 247.416 171.909 247.608 172.442 247.992C172.975 248.376 173.391 248.914 173.69 249.606C173.989 250.298 174.138 251.104 174.138 252.024C174.138 252.944 173.99 253.751 173.694 254.445C173.398 255.139 172.983 255.679 172.449 256.065C171.915 256.451 171.292 256.644 170.58 256.644ZM170.583 255.354C171.025 255.354 171.406 255.218 171.726 254.946C172.046 254.674 172.294 254.289 172.47 253.791C172.646 253.293 172.734 252.704 172.734 252.024C172.734 251.344 172.646 250.756 172.47 250.26C172.294 249.764 172.045 249.381 171.723 249.111C171.401 248.841 171.016 248.706 170.569 248.706C170.128 248.706 169.748 248.841 169.428 249.111C169.108 249.381 168.86 249.764 168.684 250.26C168.508 250.756 168.42 251.344 168.42 252.023C168.42 252.696 168.508 253.282 168.684 253.782C168.86 254.282 169.11 254.669 169.434 254.943C169.758 255.217 170.141 255.354 170.583 255.354ZM179.472 256.644C178.763 256.644 178.141 256.451 177.605 256.065C177.07 255.679 176.652 255.139 176.352 254.445C176.052 253.752 175.902 252.944 175.902 252.021C175.902 251.099 176.051 250.293 176.35 249.602C176.648 248.911 177.064 248.374 177.596 247.991C178.129 247.608 178.75 247.416 179.46 247.416C180.176 247.416 180.801 247.608 181.334 247.992C181.867 248.376 182.283 248.914 182.582 249.606C182.881 250.298 183.03 251.104 183.03 252.024C183.03 252.944 182.882 253.751 182.586 254.445C182.29 255.139 181.875 255.679 181.341 256.065C180.807 256.451 180.184 256.644 179.472 256.644ZM179.475 255.354C179.917 255.354 180.298 255.218 180.618 254.946C180.938 254.674 181.186 254.289 181.362 253.791C181.538 253.293 181.626 252.704 181.626 252.024C181.626 251.344 181.538 250.756 181.362 250.26C181.186 249.764 180.937 249.381 180.615 249.111C180.293 248.841 179.908 248.706 179.461 248.706C179.02 248.706 178.64 248.841 178.32 249.111C178 249.381 177.752 249.764 177.576 250.26C177.4 250.756 177.312 251.344 177.312 252.023C177.312 252.696 177.4 253.282 177.576 253.782C177.752 254.282 178.002 254.669 178.326 254.943C178.65 255.217 179.033 255.354 179.475 255.354ZM188.364 256.644C187.655 256.644 187.033 256.451 186.497 256.065C185.962 255.679 185.544 255.139 185.244 254.445C184.944 253.752 184.794 252.944 184.794 252.021C184.794 251.099 184.943 250.293 185.242 249.602C185.54 248.911 185.956 248.374 186.488 247.991C187.021 247.608 187.642 247.416 188.352 247.416C189.068 247.416 189.693 247.608 190.226 247.992C190.759 248.376 191.175 248.914 191.474 249.606C191.773 250.298 191.922 251.104 191.922 252.024C191.922 252.944 191.774 253.751 191.478 254.445C191.182 255.139 190.767 255.679 190.233 256.065C189.699 256.451 189.076 256.644 188.364 256.644ZM188.367 255.354C188.809 255.354 189.19 255.218 189.51 254.946C189.83 254.674 190.078 254.289 190.254 253.791C190.43 253.293 190.518 252.704 190.518 252.024C190.518 251.344 190.43 250.756 190.254 250.26C190.078 249.764 189.829 249.381 189.507 249.111C189.185 248.841 188.8 248.706 188.353 248.706C187.912 248.706 187.532 248.841 187.212 249.111C186.892 249.381 186.644 249.764 186.468 250.26C186.292 250.756 186.204 251.344 186.204 252.023C186.204 252.696 186.292 253.282 186.468 253.782C186.644 254.282 186.894 254.669 187.218 254.943C187.542 255.217 187.925 255.354 188.367 255.354ZM196.212 256.5V254.094H193.806V252.894H196.212V250.5H197.412V252.894H199.806V254.094H197.412V256.5H196.212ZM204.282 256.5V247.56H205.692V256.5H204.282ZM207.714 256.5V250.008H209.004V251.28L208.854 251.112C209.01 250.708 209.264 250.399 209.616 250.185C209.968 249.971 210.378 249.864 210.846 249.864C211.322 249.864 211.744 249.968 212.112 250.176C212.48 250.384 212.769 250.672 212.979 251.04C213.189 251.408 213.294 251.831 213.294 252.308V256.5H211.944V252.672C211.944 252.348 211.884 252.072 211.764 251.844C211.644 251.616 211.476 251.439 211.259 251.313C211.043 251.187 210.794 251.124 210.512 251.124C210.231 251.124 209.98 251.187 209.76 251.313C209.54 251.439 209.369 251.617 209.247 251.847C209.125 252.077 209.064 252.352 209.064 252.672V256.5H207.714ZM218.04 256.644C217.42 256.644 216.864 256.495 216.372 256.197C215.88 255.899 215.492 255.493 215.208 254.979C214.924 254.465 214.782 253.89 214.782 253.254C214.782 252.61 214.925 252.033 215.211 251.523C215.497 251.013 215.885 250.609 216.375 250.311C216.865 250.013 217.418 249.864 218.034 249.864C218.55 249.864 219.009 249.969 219.411 250.179C219.813 250.389 220.13 250.678 220.362 251.046L220.152 251.352V247.416H221.502V256.5H220.212V255.18L220.368 255.432C220.144 255.824 219.825 256.124 219.411 256.332C218.997 256.54 218.54 256.644 218.04 256.644ZM218.172 255.384C218.552 255.384 218.891 255.292 219.189 255.108C219.487 254.924 219.722 254.671 219.894 254.349C220.066 254.027 220.152 253.662 220.152 253.254C220.152 252.846 220.066 252.481 219.894 252.159C219.722 251.837 219.487 251.584 219.189 251.4C218.891 251.216 218.552 251.124 218.172 251.124C217.796 251.124 217.457 251.217 217.155 251.403C216.853 251.589 216.617 251.841 216.447 252.159C216.277 252.477 216.192 252.842 216.192 253.254C216.192 253.662 216.277 254.027 216.447 254.349C216.617 254.671 216.852 254.924 217.152 255.108C217.452 255.292 217.792 255.384 218.172 255.384ZM223.386 256.5V250.008H224.736V256.5H223.386ZM223.386 249.12V247.56H224.736V249.12H223.386ZM228.57 256.644C228.13 256.644 227.744 256.567 227.412 256.413C227.08 256.259 226.822 256.043 226.638 255.765C226.454 255.487 226.362 255.162 226.362 254.79C226.362 254.438 226.44 254.122 226.596 253.842C226.752 253.562 226.993 253.326 227.319 253.134C227.645 252.942 228.056 252.806 228.552 252.726L230.814 252.354V253.422L228.822 253.764C228.462 253.828 228.197 253.943 228.027 254.109C227.857 254.275 227.772 254.486 227.772 254.742C227.772 254.986 227.867 255.186 228.057 255.342C228.247 255.498 228.488 255.576 228.78 255.576C229.148 255.576 229.47 255.497 229.746 255.339C230.022 255.181 230.237 254.967 230.391 254.697C230.545 254.427 230.622 254.128 230.622 253.8V252.132C230.622 251.816 230.503 251.556 230.265 251.352C230.027 251.148 229.712 251.046 229.32 251.046C228.964 251.046 228.651 251.139 228.381 251.325C228.111 251.511 227.912 251.754 227.784 252.054L226.656 251.49C226.78 251.17 226.977 250.888 227.247 250.644C227.517 250.4 227.834 250.209 228.198 250.071C228.562 249.933 228.95 249.864 229.362 249.864C229.874 249.864 230.327 249.96 230.721 250.152C231.115 250.344 231.422 250.61 231.642 250.95C231.862 251.29 231.972 251.684 231.972 252.132V256.5H230.682V255.33L230.952 255.36C230.8 255.624 230.607 255.852 230.373 256.044C230.139 256.236 229.871 256.384 229.569 256.488C229.267 256.592 228.934 256.644 228.57 256.644ZM233.862 256.5V250.008H235.152V251.28L235.002 251.112C235.158 250.708 235.412 250.399 235.764 250.185C236.116 249.971 236.526 249.864 236.994 249.864C237.47 249.864 237.892 249.968 238.26 250.176C238.628 250.384 238.917 250.672 239.127 251.04C239.337 251.408 239.442 251.831 239.442 252.308V256.5H238.092V252.672C238.092 252.348 238.032 252.072 237.912 251.844C237.792 251.616 237.624 251.439 237.407 251.313C237.191 251.187 236.942 251.124 236.66 251.124C236.379 251.124 236.128 251.187 235.908 251.313C235.688 251.439 235.517 251.617 235.395 251.847C235.273 252.077 235.212 252.352 235.212 252.672V256.5H233.862ZM243.726 256.5V247.56H247.494C248.054 247.56 248.537 247.659 248.943 247.857C249.349 248.055 249.661 248.335 249.879 248.697C250.097 249.059 250.206 249.49 250.206 249.99C250.206 250.418 250.095 250.81 249.873 251.166C249.651 251.522 249.31 251.806 248.85 252.018L248.844 251.418C249.256 251.574 249.589 251.774 249.843 252.018C250.097 252.262 250.282 252.536 250.398 252.84C250.514 253.144 250.572 253.466 250.572 253.806C250.572 254.646 250.299 255.305 249.753 255.783C249.207 256.261 248.456 256.5 247.5 256.5H243.726ZM245.136 255.24H247.608C248.08 255.24 248.457 255.111 248.739 254.853C249.021 254.595 249.162 254.248 249.162 253.812C249.162 253.376 249.021 253.027 248.739 252.765C248.457 252.503 248.08 252.372 247.608 252.372H245.136V255.24ZM245.136 251.13H247.524C247.908 251.13 248.216 251.019 248.448 250.797C248.68 250.575 248.796 250.286 248.796 249.93C248.796 249.57 248.68 249.29 248.448 249.09C248.216 248.89 247.908 248.79 247.524 248.79H245.136V251.13ZM254.514 256.644C254.026 256.644 253.597 256.534 253.227 256.314C252.857 256.094 252.571 255.787 252.369 255.393C252.167 254.999 252.066 254.542 252.066 254.022V250.008H253.416V253.896C253.416 254.192 253.476 254.452 253.596 254.676C253.716 254.9 253.885 255.074 254.103 255.198C254.321 255.322 254.57 255.384 254.85 255.384C255.134 255.384 255.385 255.321 255.603 255.195C255.821 255.069 255.991 254.89 256.113 254.658C256.235 254.426 256.296 254.152 256.296 253.836V250.008H257.646V256.5H256.356V255.228L256.506 255.396C256.354 255.8 256.101 256.109 255.747 256.323C255.393 256.537 254.982 256.644 254.514 256.644ZM261.93 256.644C261.262 256.644 260.679 256.481 260.181 256.155C259.683 255.829 259.334 255.388 259.134 254.832L260.172 254.34C260.348 254.712 260.591 255.006 260.901 255.222C261.211 255.438 261.554 255.546 261.93 255.546C262.25 255.546 262.51 255.473 262.71 255.327C262.91 255.181 263.01 254.986 263.01 254.742C263.01 254.582 262.966 254.452 262.878 254.352C262.79 254.252 262.68 254.17 262.548 254.106C262.416 254.042 262.282 253.992 262.146 253.956L261.126 253.668C260.562 253.508 260.142 253.267 259.866 252.945C259.59 252.623 259.452 252.246 259.452 251.814C259.452 251.422 259.552 251.08 259.752 250.788C259.952 250.496 260.228 250.269 260.58 250.107C260.932 249.945 261.33 249.864 261.774 249.864C262.366 249.864 262.894 250.01 263.358 250.302C263.822 250.594 264.15 251.002 264.342 251.526L263.292 252.018C263.164 251.702 262.962 251.452 262.686 251.268C262.41 251.084 262.1 250.992 261.756 250.992C261.46 250.992 261.225 251.062 261.051 251.202C260.877 251.342 260.79 251.524 260.79 251.748C260.79 251.9 260.83 252.026 260.91 252.126C260.99 252.226 261.094 252.306 261.222 252.366C261.35 252.426 261.482 252.476 261.618 252.516L262.674 252.828C263.206 252.984 263.617 253.223 263.907 253.545C264.197 253.867 264.342 254.254 264.342 254.706C264.342 255.086 264.24 255.422 264.036 255.714C263.832 256.006 263.55 256.234 263.19 256.398C262.83 256.562 262.41 256.644 261.93 256.644ZM265.974 256.5V250.008H267.324V256.5H265.974ZM265.974 249.12V247.56H267.324V249.12H265.974ZM269.214 256.5V250.008H270.504V251.28L270.354 251.112C270.51 250.708 270.764 250.399 271.116 250.185C271.468 249.971 271.878 249.864 272.346 249.864C272.822 249.864 273.244 249.968 273.612 250.176C273.98 250.384 274.269 250.672 274.479 251.04C274.689 251.408 274.794 251.831 274.794 252.308V256.5H273.444V252.672C273.444 252.348 273.384 252.072 273.264 251.844C273.144 251.616 272.976 251.439 272.759 251.313C272.543 251.187 272.294 251.124 272.012 251.124C271.731 251.124 271.48 251.187 271.26 251.313C271.04 251.439 270.869 251.617 270.747 251.847C270.625 252.077 270.564 252.352 270.564 252.672V256.5H269.214ZM279.588 256.644C278.94 256.644 278.367 256.494 277.869 256.194C277.371 255.894 276.982 255.486 276.702 254.97C276.422 254.454 276.282 253.876 276.282 253.236C276.282 252.584 276.423 252.005 276.705 251.499C276.987 250.993 277.369 250.594 277.851 250.302C278.333 250.01 278.876 249.864 279.48 249.864C279.972 249.864 280.409 249.948 280.791 250.116C281.173 250.284 281.497 250.515 281.763 250.809C282.029 251.103 282.232 251.438 282.372 251.814C282.512 252.19 282.582 252.588 282.582 253.008C282.582 253.112 282.577 253.22 282.567 253.332C282.557 253.444 282.54 253.548 282.516 253.644H277.344V252.564H281.748L281.106 253.056C281.182 252.664 281.155 252.314 281.025 252.006C280.895 251.698 280.695 251.454 280.425 251.274C280.155 251.094 279.84 251.004 279.48 251.004C279.124 251.004 278.805 251.094 278.523 251.274C278.241 251.454 278.024 251.711 277.872 252.045C277.72 252.379 277.66 252.78 277.692 253.248C277.656 253.688 277.719 254.073 277.881 254.403C278.043 254.733 278.275 254.989 278.577 255.171C278.879 255.353 279.22 255.444 279.6 255.444C279.996 255.444 280.331 255.356 280.605 255.18C280.879 255.004 281.098 254.776 281.262 254.496L282.366 255.042C282.238 255.346 282.039 255.619 281.769 255.861C281.499 256.103 281.179 256.294 280.809 256.434C280.439 256.574 280.032 256.644 279.588 256.644ZM286.602 256.644C285.934 256.644 285.351 256.481 284.853 256.155C284.355 255.829 284.006 255.388 283.806 254.832L284.844 254.34C285.02 254.712 285.263 255.006 285.573 255.222C285.883 255.438 286.226 255.546 286.602 255.546C286.922 255.546 287.182 255.473 287.382 255.327C287.582 255.181 287.682 254.986 287.682 254.742C287.682 254.582 287.638 254.452 287.55 254.352C287.462 254.252 287.352 254.17 287.22 254.106C287.088 254.042 286.954 253.992 286.818 253.956L285.798 253.668C285.234 253.508 284.814 253.267 284.538 252.945C284.262 252.623 284.124 252.246 284.124 251.814C284.124 251.422 284.224 251.08 284.424 250.788C284.624 250.496 284.9 250.269 285.252 250.107C285.604 249.945 286.002 249.864 286.446 249.864C287.038 249.864 287.566 250.01 288.03 250.302C288.494 250.594 288.822 251.002 289.014 251.526L287.964 252.018C287.836 251.702 287.634 251.452 287.358 251.268C287.082 251.084 286.772 250.992 286.428 250.992C286.132 250.992 285.897 251.062 285.723 251.202C285.549 251.342 285.462 251.524 285.462 251.748C285.462 251.9 285.502 252.026 285.582 252.126C285.662 252.226 285.766 252.306 285.894 252.366C286.022 252.426 286.154 252.476 286.29 252.516L287.346 252.828C287.878 252.984 288.289 253.223 288.579 253.545C288.869 253.867 289.014 254.254 289.014 254.706C289.014 255.086 288.912 255.422 288.708 255.714C288.504 256.006 288.222 256.234 287.862 256.398C287.502 256.562 287.082 256.644 286.602 256.644ZM293.046 256.644C292.378 256.644 291.795 256.481 291.297 256.155C290.799 255.829 290.45 255.388 290.25 254.832L291.288 254.34C291.464 254.712 291.707 255.006 292.017 255.222C292.327 255.438 292.67 255.546 293.046 255.546C293.366 255.546 293.626 255.473 293.826 255.327C294.026 255.181 294.126 254.986 294.126 254.742C294.126 254.582 294.082 254.452 293.994 254.352C293.906 254.252 293.796 254.17 293.664 254.106C293.532 254.042 293.398 253.992 293.262 253.956L292.242 253.668C291.678 253.508 291.258 253.267 290.982 252.945C290.706 252.623 290.568 252.246 290.568 251.814C290.568 251.422 290.668 251.08 290.868 250.788C291.068 250.496 291.344 250.269 291.696 250.107C292.048 249.945 292.446 249.864 292.89 249.864C293.482 249.864 294.01 250.01 294.474 250.302C294.938 250.594 295.266 251.002 295.458 251.526L294.408 252.018C294.28 251.702 294.078 251.452 293.802 251.268C293.526 251.084 293.216 250.992 292.872 250.992C292.576 250.992 292.341 251.062 292.167 251.202C291.993 251.342 291.906 251.524 291.906 251.748C291.906 251.9 291.946 252.026 292.026 252.126C292.106 252.226 292.21 252.306 292.338 252.366C292.466 252.426 292.598 252.476 292.734 252.516L293.79 252.828C294.322 252.984 294.733 253.223 295.023 253.545C295.313 253.867 295.458 254.254 295.458 254.706C295.458 255.086 295.356 255.422 295.152 255.714C294.948 256.006 294.666 256.234 294.306 256.398C293.946 256.562 293.526 256.644 293.046 256.644ZM300.132 256.644C299.484 256.644 298.911 256.494 298.413 256.194C297.915 255.894 297.526 255.486 297.246 254.97C296.966 254.454 296.826 253.876 296.826 253.236C296.826 252.584 296.967 252.005 297.249 251.499C297.531 250.993 297.913 250.594 298.395 250.302C298.877 250.01 299.42 249.864 300.024 249.864C300.516 249.864 300.953 249.948 301.335 250.116C301.717 250.284 302.041 250.515 302.307 250.809C302.573 251.103 302.776 251.438 302.916 251.814C303.056 252.19 303.126 252.588 303.126 253.008C303.126 253.112 303.121 253.22 303.111 253.332C303.101 253.444 303.084 253.548 303.06 253.644H297.888V252.564H302.292L301.65 253.056C301.726 252.664 301.699 252.314 301.569 252.006C301.439 251.698 301.239 251.454 300.969 251.274C300.699 251.094 300.384 251.004 300.024 251.004C299.668 251.004 299.349 251.094 299.067 251.274C298.785 251.454 298.568 251.711 298.416 252.045C298.264 252.379 298.204 252.78 298.236 253.248C298.2 253.688 298.263 254.073 298.425 254.403C298.587 254.733 298.819 254.989 299.121 255.171C299.423 255.353 299.764 255.444 300.144 255.444C300.54 255.444 300.875 255.356 301.149 255.18C301.423 255.004 301.642 254.776 301.806 254.496L302.91 255.042C302.782 255.346 302.583 255.619 302.313 255.861C302.043 256.103 301.723 256.294 301.353 256.434C300.983 256.574 300.576 256.644 300.132 256.644ZM307.146 256.644C306.478 256.644 305.895 256.481 305.397 256.155C304.899 255.829 304.55 255.388 304.35 254.832L305.388 254.34C305.564 254.712 305.807 255.006 306.117 255.222C306.427 255.438 306.77 255.546 307.146 255.546C307.466 255.546 307.726 255.473 307.926 255.327C308.126 255.181 308.226 254.986 308.226 254.742C308.226 254.582 308.182 254.452 308.094 254.352C308.006 254.252 307.896 254.17 307.764 254.106C307.632 254.042 307.498 253.992 307.362 253.956L306.342 253.668C305.778 253.508 305.358 253.267 305.082 252.945C304.806 252.623 304.668 252.246 304.668 251.814C304.668 251.422 304.768 251.08 304.968 250.788C305.168 250.496 305.444 250.269 305.796 250.107C306.148 249.945 306.546 249.864 306.99 249.864C307.582 249.864 308.11 250.01 308.574 250.302C309.038 250.594 309.366 251.002 309.558 251.526L308.508 252.018C308.38 251.702 308.178 251.452 307.902 251.268C307.626 251.084 307.316 250.992 306.972 250.992C306.676 250.992 306.441 251.062 306.267 251.202C306.093 251.342 306.006 251.524 306.006 251.748C306.006 251.9 306.046 252.026 306.126 252.126C306.206 252.226 306.31 252.306 306.438 252.366C306.566 252.426 306.698 252.476 306.834 252.516L307.89 252.828C308.422 252.984 308.833 253.223 309.123 253.545C309.413 253.867 309.558 254.254 309.558 254.706C309.558 255.086 309.456 255.422 309.252 255.714C309.048 256.006 308.766 256.234 308.406 256.398C308.046 256.562 307.626 256.644 307.146 256.644Z" fill="white" fill-opacity="0.9"/>
</g>
</g>
</g>
<defs>
<filter id="filter0_d_2204_4" x="-3" y="0" width="396" height="319.5" filterUnits="userSpaceOnUse" color-interpolation-filters="sRGB">
<feFlood flood-opacity="0" result="BackgroundImageFix"/>
<feColorMatrix in="SourceAlpha" type="matrix" values="0 0 0 0 0 0 0 0 0 0 0 0 0 0 0 0 0 0 127 0" result="hardAlpha"/>
<feMorphology radius="6" operator="erode" in="SourceAlpha" result="effect1_dropShadow_2204_4"/>
<feOffset dy="12"/>
<feGaussianBlur stdDeviation="15"/>
<feComposite in2="hardAlpha" operator="out"/>
<feColorMatrix type="matrix" values="0 0 0 0 1 0 0 0 0 0.419608 0 0 0 0 0.333333 0 0 0 0.4 0"/>
<feBlend mode="normal" in2="BackgroundImageFix" result="effect1_dropShadow_2204_4"/>
<feBlend mode="normal" in="SourceGraphic" in2="effect1_dropShadow_2204_4" result="shape"/>
</filter>
<clipPath id="bgblur_1_2204_4_clip_path" transform="translate(-77.7351 -24)"><rect x="89.7351" y="36" width="210.53" height="26.5" rx="13.25"/>
</clipPath><filter id="filter2_f_2204_4" x="193" y="-68" width="256" height="256" filterUnits="userSpaceOnUse" color-interpolation-filters="sRGB">
<feFlood flood-opacity="0" result="BackgroundImageFix"/>
<feBlend mode="normal" in="SourceGraphic" in2="BackgroundImageFix" result="shape"/>
<feGaussianBlur stdDeviation="20" result="effect1_foregroundBlur_2204_4"/>
</filter>
<filter id="filter3_f_2204_4" x="-35" y="147.5" width="192" height="192" filterUnits="userSpaceOnUse" color-interpolation-filters="sRGB">
<feFlood flood-opacity="0" result="BackgroundImageFix"/>
<feBlend mode="normal" in="SourceGraphic" in2="BackgroundImageFix" result="shape"/>
<feGaussianBlur stdDeviation="12" result="effect1_foregroundBlur_2204_4"/>
</filter>
<clipPath id="bgblur_2_2204_4_clip_path" transform="translate(-51 -63.5)"><rect x="55" y="74.5" width="280" height="157" rx="16"/>
</clipPath><filter id="filter5_dd_2204_4" x="35" y="78.5" width="320" height="193" filterUnits="userSpaceOnUse" color-interpolation-filters="sRGB">
<feFlood flood-opacity="0" result="BackgroundImageFix"/>
<feColorMatrix in="SourceAlpha" type="matrix" values="0 0 0 0 0 0 0 0 0 0 0 0 0 0 0 0 0 0 127 0" result="hardAlpha"/>
<feMorphology radius="6" operator="erode" in="SourceAlpha" result="effect1_dropShadow_2204_4"/>
<feOffset dy="8"/>
<feGaussianBlur stdDeviation="5"/>
<feComposite in2="hardAlpha" operator="out"/>
<feColorMatrix type="matrix" values="0 0 0 0 0 0 0 0 0 0 0 0 0 0 0 0 0 0 0.1 0"/>
<feBlend mode="normal" in2="BackgroundImageFix" result="effect1_dropShadow_2204_4"/>
<feColorMatrix in="SourceAlpha" type="matrix" values="0 0 0 0 0 0 0 0 0 0 0 0 0 0 0 0 0 0 127 0" result="hardAlpha"/>
<feMorphology radius="5" operator="erode" in="SourceAlpha" result="effect2_dropShadow_2204_4"/>
<feOffset dy="20"/>
<feGaussianBlur stdDeviation="12.5"/>
<feComposite in2="hardAlpha" operator="out"/>
<feColorMatrix type="matrix" values="0 0 0 0 0 0 0 0 0 0 0 0 0 0 0 0 0 0 0.1 0"/>
<feBlend mode="normal" in2="effect1_dropShadow_2204_4" result="effect2_dropShadow_2204_4"/>
<feBlend mode="normal" in="SourceGraphic" in2="effect2_dropShadow_2204_4" result="shape"/>
</filter>
<filter id="filter6_dd_2204_4" x="305" y="66.5" width="42" height="42" filterUnits="userSpaceOnUse" color-interpolation-filters="sRGB">
<feFlood flood-opacity="0" result="BackgroundImageFix"/>
<feColorMatrix in="SourceAlpha" type="matrix" values="0 0 0 0 0 0 0 0 0 0 0 0 0 0 0 0 0 0 127 0" result="hardAlpha"/>
<feMorphology radius="2" operator="erode" in="SourceAlpha" result="effect1_dropShadow_2204_4"/>
<feOffset dy="2"/>
<feGaussianBlur stdDeviation="2"/>
<feComposite in2="hardAlpha" operator="out"/>
<feColorMatrix type="matrix" values="0 0 0 0 0 0 0 0 0 0 0 0 0 0 0 0 0 0 0.1 0"/>
<feBlend mode="normal" in2="BackgroundImageFix" result="effect1_dropShadow_2204_4"/>
<feColorMatrix in="SourceAlpha" type="matrix" values="0 0 0 0 0 0 0 0 0 0 0 0 0 0 0 0 0 0 127 0" result="hardAlpha"/>
<feMorphology radius="1" operator="erode" in="SourceAlpha" result="effect2_dropShadow_2204_4"/>
<feOffset dy="4"/>
<feGaussianBlur stdDeviation="3"/>
<feComposite in2="hardAlpha" operator="out"/>
<feColorMatrix type="matrix" values="0 0 0 0 0 0 0 0 0 0 0 0 0 0 0 0 0 0 0.1 0"/>
<feBlend mode="normal" in2="effect1_dropShadow_2204_4" result="effect2_dropShadow_2204_4"/>
<feBlend mode="normal" in="SourceGraphic" in2="effect2_dropShadow_2204_4" result="shape"/>
</filter>
<filter id="filter7_d_2204_4" x="44" y="243.5" width="302" height="18" filterUnits="userSpaceOnUse" color-interpolation-filters="sRGB">
<feFlood flood-opacity="0" result="BackgroundImageFix"/>
<feColorMatrix in="SourceAlpha" type="matrix" values="0 0 0 0 0 0 0 0 0 0 0 0 0 0 0 0 0 0 127 0" result="hardAlpha"/>
<feOffset dy="1"/>
<feGaussianBlur stdDeviation="0.5"/>
<feComposite in2="hardAlpha" operator="out"/>
<feColorMatrix type="matrix" values="0 0 0 0 0 0 0 0 0 0 0 0 0 0 0 0 0 0 0.05 0"/>
<feBlend mode="normal" in2="BackgroundImageFix" result="effect1_dropShadow_2204_4"/>
<feBlend mode="normal" in="SourceGraphic" in2="effect1_dropShadow_2204_4" result="shape"/>
</filter>
<linearGradient id="paint0_linear_2204_4" x1="63.3279" y1="-21.0231" x2="326.672" y2="316.523" gradientUnits="userSpaceOnUse">
<stop stop-color="#FF7A59"/>
<stop offset="0.5" stop-color="#DC4A68"/>
<stop offset="1" stop-color="#4F1F76"/>
</linearGradient>
<clipPath id="clip0_2204_4">
<rect x="21" y="12" width="348" height="271.5" rx="24" fill="white"/>
</clipPath>
</defs>
</svg>
