<svg preserveAspectRatio="none" overflow="visible" style="display: block;" width="14" height="14" viewBox="0 0 14 14" fill="none" xmlns="http://www.w3.org/2000/svg">
<g id="SVG" clip-path="url(#clip0_0_7)">
<path id="Vector" d="M1.16667 4.08333L3.73917 1.51083C3.95838 1.29031 4.25656 1.16642 4.5675 1.16667H9.4325C9.74344 1.16642 10.0416 1.29031 10.2608 1.51083L12.8333 4.08333" stroke="#059669" stroke-width="1.16667" stroke-linecap="round" stroke-linejoin="round"/>
<path id="Vector_2" d="M2.33333 7V11.6667C2.33333 12.3106 2.8561 12.8333 3.5 12.8333H10.5C11.1439 12.8333 11.6667 12.3106 11.6667 11.6667V7" stroke="#059669" stroke-width="1.16667" stroke-linecap="round" stroke-linejoin="round"/>
<path id="Vector_3" d="M8.75 12.8333V10.5C8.75 9.8561 8.22723 9.33333 7.58333 9.33333H6.41667C5.77277 9.33333 5.25 9.8561 5.25 10.5V12.8333" stroke="#059669" stroke-width="1.16667" stroke-linecap="round" stroke-linejoin="round"/>
<path id="Vector_4" d="M1.16667 4.08333H12.8333" stroke="#059669" stroke-width="1.16667" stroke-linecap="round" stroke-linejoin="round"/>
<path id="Vector_5" d="M2.33333 4.08333C2.33333 5.04918 3.11748 5.83333 4.08333 5.83333C5.04918 5.83333 5.83333 5.04918 5.83333 4.08333" stroke="#059669" stroke-width="1.16667" stroke-linecap="round" stroke-linejoin="round"/>
<path id="Vector_6" d="M5.83333 4.08333C5.83333 5.04918 6.61748 5.83333 7.58333 5.83333C8.54918 5.83333 9.33333 5.04918 9.33333 4.08333" stroke="#059669" stroke-width="1.16667" stroke-linecap="round" stroke-linejoin="round"/>
<path id="Vector_7" d="M9.33333 4.08333C9.33333 5.04918 10.1175 5.83333 11.0833 5.83333C12.0492 5.83333 12.8333 5.04918 12.8333 4.08333" stroke="#059669" stroke-width="1.16667" stroke-linecap="round" stroke-linejoin="round"/>
</g>
<defs>
<clipPath id="clip0_0_7">
<rect width="14" height="14" fill="white"/>
</clipPath>
</defs>
</svg>
